<svg width="798" height="698" viewBox="0 0 798 698" fill="none" xmlns="http://www.w3.org/2000/svg">
<g filter="url(#filter0_d_23_12)">
<path fill-rule="evenodd" clip-rule="evenodd" d="M720.482 43.394C728.168 34.4806 741.625 33.4861 750.538 41.1725C759.452 48.8589 760.446 62.3157 752.76 71.229L688.451 145.803C680.764 154.716 667.307 155.711 658.394 148.024C649.481 140.338 648.486 126.881 656.172 117.968L720.482 43.394ZM582.475 52.6125C593.124 40.2648 611.765 38.887 624.113 49.535C636.461 60.1831 637.839 78.8249 627.19 91.1726L564.884 163.425C612.556 208.948 642.255 273.133 642.255 344.255C642.255 475.554 541.036 583.212 412.372 593.457L379.613 631.445C369.737 642.898 352.446 644.176 340.993 634.299C329.54 624.423 328.262 607.132 338.138 595.679L343.469 589.497C318.701 584.598 295.249 576.04 273.699 564.411L217.957 629.051C207.025 641.728 187.886 643.143 175.209 632.211C162.532 621.278 161.117 602.14 172.049 589.463L224.027 529.188C202.257 509.373 184 485.767 170.299 459.413L144.25 489.619C133.602 501.967 114.96 503.345 102.613 492.696C90.2648 482.048 88.887 463.407 99.5351 451.059L147.499 395.439C144.062 378.917 142.255 361.797 142.255 344.255C142.255 206.184 254.184 94.255 392.255 94.255C402.648 94.255 412.892 94.8891 422.952 96.1208L459.038 54.2741C468.594 43.1927 485.324 41.9562 496.406 51.5123C507.487 61.0684 508.724 77.7984 499.168 88.8798L480.664 110.337C493.503 115.192 505.837 121.073 517.567 127.881L582.475 52.6125ZM749.264 153.798C739.95 145.766 725.888 146.805 717.856 156.12L654.798 229.242C646.766 238.556 647.805 252.618 657.12 260.65C666.434 268.682 680.495 267.643 688.527 258.329L751.585 185.206C759.617 175.892 758.578 161.83 749.264 153.798ZM139.538 541.173C130.625 533.486 117.168 534.481 109.482 543.394L45.1725 617.968C37.4861 626.881 38.4806 640.338 47.394 648.024C56.3073 655.711 69.7641 654.716 77.4505 645.803L141.76 571.229C149.446 562.316 148.451 548.859 139.538 541.173Z" fill="white"/>
</g>
<defs>
<filter id="filter0_d_23_12" x="0" y="0" width="797.932" height="697.197" filterUnits="userSpaceOnUse" color-interpolation-filters="sRGB">
<feFlood flood-opacity="0" result="BackgroundImageFix"/>
<feColorMatrix in="SourceAlpha" type="matrix" values="0 0 0 0 0 0 0 0 0 0 0 0 0 0 0 0 0 0 127 0" result="hardAlpha"/>
<feOffset dy="4"/>
<feGaussianBlur stdDeviation="20"/>
<feComposite in2="hardAlpha" operator="out"/>
<feColorMatrix type="matrix" values="0 0 0 0 0 0 0 0 0 0 0 0 0 0 0 0 0 0 0.25 0"/>
<feBlend mode="normal" in2="BackgroundImageFix" result="effect1_dropShadow_23_12"/>
<feBlend mode="normal" in="SourceGraphic" in2="effect1_dropShadow_23_12" result="shape"/>
</filter>
</defs>
</svg>
